<svg width="55" height="56" viewBox="0 0 55 56" fill="none" xmlns="http://www.w3.org/2000/svg">
<path d="M4.58331 8.30716C4.58331 7.39548 4.94548 6.52114 5.59013 5.87648C6.23479 5.23182 7.10913 4.86966 8.02081 4.86966H14.8958C15.8075 4.86966 16.6818 5.23182 17.3265 5.87648C17.9711 6.52114 18.3333 7.39548 18.3333 8.30716V15.1822C18.3333 16.0938 17.9711 16.9682 17.3265 17.6128C16.6818 18.2575 15.8075 18.6197 14.8958 18.6197H8.02081C7.10913 18.6197 6.23479 18.2575 5.59013 17.6128C4.94548 16.9682 4.58331 16.0938 4.58331 15.1822V8.30716ZM21.7708 8.30716C21.7708 7.39548 22.133 6.52114 22.7776 5.87648C23.4223 5.23182 24.2966 4.86966 25.2083 4.86966H32.0833C32.995 4.86966 33.8693 5.23182 34.514 5.87648C35.1586 6.52114 35.5208 7.39548 35.5208 8.30716V15.1822C35.5208 16.0938 35.1586 16.9682 34.514 17.6128C33.8693 18.2575 32.995 18.6197 32.0833 18.6197H25.2083C24.2966 18.6197 23.4223 18.2575 22.7776 17.6128C22.133 16.9682 21.7708 16.0938 21.7708 15.1822V8.30716ZM38.9583 8.30716C38.9583 7.39548 39.3205 6.52114 39.9651 5.87648C40.6098 5.23182 41.4841 4.86966 42.3958 4.86966H49.2708C50.1825 4.86966 51.0568 5.23182 51.7015 5.87648C52.3461 6.52114 52.7083 7.39548 52.7083 8.30716V15.1822C52.7083 16.0938 52.3461 16.9682 51.7015 17.6128C51.0568 18.2575 50.1825 18.6197 49.2708 18.6197H42.3958C41.4841 18.6197 40.6098 18.2575 39.9651 17.6128C39.3205 16.9682 38.9583 16.0938 38.9583 15.1822V8.30716ZM4.58331 25.4947C4.58331 24.583 4.94548 23.7086 5.59013 23.064C6.23479 22.4193 7.10913 22.0572 8.02081 22.0572H14.8958C15.8075 22.0572 16.6818 22.4193 17.3265 23.064C17.9711 23.7086 18.3333 24.583 18.3333 25.4947V32.3697C18.3333 33.2813 17.9711 34.1557 17.3265 34.8003C16.6818 35.445 15.8075 35.8072 14.8958 35.8072H8.02081C7.10913 35.8072 6.23479 35.445 5.59013 34.8003C4.94548 34.1557 4.58331 33.2813 4.58331 32.3697V25.4947ZM21.7708 25.4947C21.7708 24.583 22.133 23.7086 22.7776 23.064C23.4223 22.4193 24.2966 22.0572 25.2083 22.0572H32.0833C32.995 22.0572 33.8693 22.4193 34.514 23.064C35.1586 23.7086 35.5208 24.583 35.5208 25.4947V32.3697C35.5208 33.2813 35.1586 34.1557 34.514 34.8003C33.8693 35.445 32.995 35.8072 32.0833 35.8072H25.2083C24.2966 35.8072 23.4223 35.445 22.7776 34.8003C22.133 34.1557 21.7708 33.2813 21.7708 32.3697V25.4947ZM38.9583 25.4947C38.9583 24.583 39.3205 23.7086 39.9651 23.064C40.6098 22.4193 41.4841 22.0572 42.3958 22.0572H49.2708C50.1825 22.0572 51.0568 22.4193 51.7015 23.064C52.3461 23.7086 52.7083 24.583 52.7083 25.4947V32.3697C52.7083 33.2813 52.3461 34.1557 51.7015 34.8003C51.0568 35.445 50.1825 35.8072 49.2708 35.8072H42.3958C41.4841 35.8072 40.6098 35.445 39.9651 34.8003C39.3205 34.1557 38.9583 33.2813 38.9583 32.3697V25.4947ZM4.58331 42.6822C4.58331 41.7705 4.94548 40.8961 5.59013 40.2515C6.23479 39.6068 7.10913 39.2447 8.02081 39.2447H14.8958C15.8075 39.2447 16.6818 39.6068 17.3265 40.2515C17.9711 40.8961 18.3333 41.7705 18.3333 42.6822V49.5572C18.3333 50.4688 17.9711 51.3432 17.3265 51.9878C16.6818 52.6325 15.8075 52.9947 14.8958 52.9947H8.02081C7.10913 52.9947 6.23479 52.6325 5.59013 51.9878C4.94548 51.3432 4.58331 50.4688 4.58331 49.5572V42.6822ZM21.7708 42.6822C21.7708 41.7705 22.133 40.8961 22.7776 40.2515C23.4223 39.6068 24.2966 39.2447 25.2083 39.2447H32.0833C32.995 39.2447 33.8693 39.6068 34.514 40.2515C35.1586 40.8961 35.5208 41.7705 35.5208 42.6822V49.5572C35.5208 50.4688 35.1586 51.3432 34.514 51.9878C33.8693 52.6325 32.995 52.9947 32.0833 52.9947H25.2083C24.2966 52.9947 23.4223 52.6325 22.7776 51.9878C22.133 51.3432 21.7708 50.4688 21.7708 49.5572V42.6822ZM38.9583 42.6822C38.9583 41.7705 39.3205 40.8961 39.9651 40.2515C40.6098 39.6068 41.4841 39.2447 42.3958 39.2447H49.2708C50.1825 39.2447 51.0568 39.6068 51.7015 40.2515C52.3461 40.8961 52.7083 41.7705 52.7083 42.6822V49.5572C52.7083 50.4688 52.3461 51.3432 51.7015 51.9878C51.0568 52.6325 50.1825 52.9947 49.2708 52.9947H42.3958C41.4841 52.9947 40.6098 52.6325 39.9651 51.9878C39.3205 51.3432 38.9583 50.4688 38.9583 49.5572V42.6822Z" fill="#2A2A2A"/>
</svg>
